# xmcd
#
# Track frame offsets: 
#        150
#        12814
#        37751
#        52835
#        74250
#        88217
#        108557
#
# Disc length: 1625 seconds
#
# Revision: 0
# Processed by: cddbd v1.5.2PL0 Copyright (c) Steve Scherf et al.
# Submitted via: ExactAudioCopy v0.99pb4
#
DISCID=4e065707
DTITLE=Ben Nichols - The Last Pale Light In The West
DYEAR=2008
DGENRE=Acoustic
TTITLE0=The Last Pale Light In The West
TTITLE1=The Kid
TTITLE2=Davy Brown
TTITLE3=Chambers
TTITLE4=Tobin
TTITLE5=Toadvine
TTITLE6=The Judge
EXTD=
EXTT0=
EXTT1=
EXTT2=
EXTT3=
EXTT4=
EXTT5=
EXTT6=
PLAYORDER=
